<svg id="Layer_1" data-name="Layer 1" xmlns="http://www.w3.org/2000/svg" viewBox="0 0 2000 900"><defs><style>.cls-1{fill:#213a57;}.cls-2{fill:#27dfb2;}</style></defs><path class="cls-1" d="M388.75,567.57c-6.64-10.31-15.87-15.53-27.18-15.7-15.88-.25-25,9.36-30,24.58-6.23-9.56-7.19-19.25-5.55-29.15,2.2-13.21,9.75-22.43,23-25.46,14.69-3.35,26.27,2.95,34.07,14.85,21.36,32.59,34.42,68.09,32.7,107.61-1.59,36.39-11.85,70.11-36.11,98.18-38,43.95-98.91,56.39-150.82,30.23a73.48,73.48,0,0,0-35.25-8c-36.3.36-66-24.22-72.86-59.73a86.62,86.62,0,0,1-1.5-16.39Q119.12,585,119.2,481.3v-4.77c34.13-2.79,67.82-.83,101.51-.87l-6.43.45c-.1,1.92-.28,3.73-.28,5.54q0,100.3-.1,200.6c0,3.91,1.33,6.15,4.46,8.41,60.13,43.42,151.2,13,170-65.62,2.07-8.63,3.57-17.4,5.59-27.35l11.39,8.09c-.78-10.15-10.93-16.69-22.31-13.75-9.37,2.42-14.89,8.72-17.43,17.86-.27,1-.48,2-.76,3,0,.12-.28.18-.43.26-8.27-3.56-12.79-19.94-8.66-31.72C360.41,568.15,369.76,564.15,388.75,567.57Zm-174,148.79c-3,11.49,0,20.11,9.72,26.06a27.35,27.35,0,0,1,2.75,2.33c21.63,17.8,46.09,28.19,74.42,28.39a86.22,86.22,0,0,0,9.75-.71c3.15-.33,6.29-.85,9.43-1.29C275.19,772.77,241.47,751.86,214.76,716.36Z"/><path class="cls-1" d="M122.35,114.46H314.86c-9.72,1.8-17.81,6.79-25.62,12.47C254.69,152.1,220,177.1,185.59,202.45c-4.69,3.45-8.34,3.84-13.42,1.2-17.29-9-28.37-23.39-36.54-40.51-6.61-13.86-10.57-28.52-13.24-43.56A31.69,31.69,0,0,1,122.35,114.46Z"/><path class="cls-1" d="M414.21,132.17c0,10.35,0,19.41,0,28.47a27.37,27.37,0,0,1-.19,5.13c-.92,4.76-5.42,6.06-9.23,3.18-20.53-15.52-41-31.15-61.86-46.17-5.55-4-12.54-6-18.12-8.53h4c23.89,0,47.79-.55,71.66.12,48.84,1.35,84.24,24.47,106.94,67.55,2.21,4.18,1.93,6.9-2.19,9.17a7.11,7.11,0,0,0-2,1.64c-3.3,4-6.12,3-9.85,0-24.54-19.08-49.29-37.91-74-56.81C418.11,134.93,416.71,134,414.21,132.17Z"/><path class="cls-1" d="M121.88,178.3c13,14.89,27.3,27.7,44.81,37.67-11,7.92-21.49,15.56-32.06,23.14a3.58,3.58,0,0,1-2.33.68c-3.63-.57-10.41-8.85-10.41-12.63Q121.86,202.73,121.88,178.3Z"/><path class="cls-1" d="M415.43,248.37c-4.28-7.45-8-13.9-11.68-20.32,8.76-1.48,11.55.76,11.67,9.55C415.47,241,415.43,244.32,415.43,248.37Z"/><path class="cls-2" d="M137.36,475.3a26.4,26.4,0,0,1,3-2.77q70.8-47,141.68-93.83a11,11,0,0,1,5.67-1.73q32.65-.18,65.29,0a11.07,11.07,0,0,1,5.73,1.65q55.76,36.47,111.38,73.13c.72.47,1.39,1,2.49,1.82-2.17,1.52-4,2.89-5.89,4.11a115.67,115.67,0,0,1-44.4,16.89,12.87,12.87,0,0,0-2.11.73Z"/><path class="cls-2" d="M132.24,240,165,216.13c10.09,3.41,19.21,7.45,28.76,9.44s19.59,1.93,30,2.82v3.21c0,18.88.08,37.77,0,56.65,0,3.6-1,7.21-.82,10.77s1.36,6.8,2.1,10.19l1.52.35c2.24-2.89,4.93-5.54,6.62-8.73a78.91,78.91,0,0,1,25.1-28c19.46-13.67,41.2-22,64.21-27.29A366.44,366.44,0,0,1,389.31,237c3.21-.13,6.42-.58,9.63-.68,5.64-.18,7.44,1.56,7.59,7.18.21,8.15.35,16.3.59,24.44a17.89,17.89,0,0,0,.68,4.55c1.47,4.8,3.13,5.78,7.14,3.05,7.16-4.87,14.08-10.14,20.84-15.57,14.08-11.29,28-22.81,42-34.2,3.61-2.94,7.63-2.9,12,.38,6,4.47,11.78,9.16,17.88,13.93q-13.74,11.51-27.52,23c-19.91,16.59-39.88,33.11-59.73,49.76-18.17,15.23-36.22,30.61-54.33,45.93-.88.75-1.77,1.49-2.68,2.22-5.68,4.52-8.89,4.73-15,.74-8.82-5.79-18.34-9.29-29-9-9.52.24-18.11,3.46-26.12,8.45-7.65,4.76-10.06,4.61-16.86-1.06q-18.74-15.6-37.45-31.22-50-41.7-99.91-83.39C136.91,243.68,134.7,242,132.24,240Z"/><path class="cls-2" d="M516.36,244.29c.82,6,2.11,11.23,2.14,16.42.26,34.41.89,68.83.15,103.21-.7,32.83-14,60.43-38.3,82.93L453.12,429q-38.6-25.32-77.2-50.61c-3.08-2-6.46-3.57-9.71-5.34-2.53-1.38-3-2.62-.42-4.78Q432,313.93,498,259.42Z"/><path class="cls-2" d="M121.91,471.49V453.26q0-94.08.07-188.17c0-6.39,1.11-12.77,1.7-19.16l1.2-.42c2.63,2.11,5.29,4.19,7.89,6.34q44.17,36.68,88.28,73.45a8.19,8.19,0,0,1,2.56,5.48c.21,13.84.11,27.68.11,41.52v4.44h41.63l.51,1.08Z"/><path class="cls-2" d="M499.3,196l-81.59,66.55c-1.23-5.25-1.75-10.43-3.68-15-2.52-6-6.07-11.58-9.4-17.2a4.5,4.5,0,0,0-3.39-1.85c-40.69,1.06-80.73,5.57-118.75,21.65-16,6.75-29.84,16.67-43.54,27-1.21.91-2.48,1.75-4.58,3.23.82-3.14,1.33-5.33,2-7.48,7.41-24.46,20.11-45.69,40.18-61.59,18.21-14.43,39-24.37,61.32-30.78a253.44,253.44,0,0,1,62.73-9.65,22.72,22.72,0,0,0,4.61-.33c8.22-2,8.44-2.57,8.3-11.44-.15-9.52,0-19,0-29.16Z"/><path class="cls-2" d="M179.74,205.39l35-25.93,74.49-55.13c9.9-7.32,20.46-12.59,33.2-10.67,9.87,1.49,17.92,6.9,25.79,12.66q21.13,15.51,42.25,31.07a38.52,38.52,0,0,1,3.63,3.59c-9.61,1.11-18.17,1.82-26.64,3.11-32.3,4.89-63.19,13.77-90,33.87a100.77,100.77,0,0,0-10.16,8.77,7.79,7.79,0,0,1-6,2.36c-15.87-.09-31.74-.05-47.61-.05-7,0-14,.35-20.88-.06-4.35-.26-8.64-1.65-13-2.53Z"/><path class="cls-1" d="M477.74,225.73s5.16-5.2,12,.38L507.63,240l4.27-4.13a12,12,0,0,0,3.57-10.11c-1-8-2.69-21.74-3.53-26.14a.49.49,0,0,0-.79-.29Z"/><path class="cls-1" d="M134.8,736.52s48,65.78,178.64,46.5C313.44,783,175.56,755.44,134.8,736.52Z"/><path d="M561.8,467.46V361.3h44a39.51,39.51,0,0,1,19.34,4.62,33.07,33.07,0,0,1,13.12,13,40,40,0,0,1,0,37.61,33.07,33.07,0,0,1-13.12,13,39.51,39.51,0,0,1-19.34,4.62H584.55v33.37Zm41.7-53.84q7.89,0,12.28-4.25c2.93-2.82,4.4-6.72,4.4-11.67s-1.47-8.85-4.4-11.68-7-4.24-12.28-4.24h-19v31.84Z"/><path d="M744.53,467.46H718.75L694,430.3H682.36v37.16H659.61V361.3H705.1a38.83,38.83,0,0,1,18.66,4.32,31,31,0,0,1,12.51,12.21,36.6,36.6,0,0,1,4.47,18.35q0,12.29-6.44,20.93a32.64,32.64,0,0,1-15.85,11.83Zm-62.17-85.68v28.81h21.23A14.37,14.37,0,0,0,714,406.72q4-3.86,4-10.54t-4-10.54a14.36,14.36,0,0,0-10.39-3.86Z"/><path d="M778,462.53a43.22,43.22,0,0,1-17.45-18.73q-6.13-12.29-6.13-29.42T760.53,385A43.22,43.22,0,0,1,778,366.23q11.29-6.45,26.46-6.45t26.47,6.45A43.24,43.24,0,0,1,848.34,385q6.13,12.29,6.14,29.42t-6.14,29.42a43.24,43.24,0,0,1-17.43,18.73Q819.6,469,804.44,469T778,462.53Zm46.33-22.82q7.43-8.81,7.43-25.33t-7.43-25.33q-7.44-8.79-19.87-8.79t-19.86,8.79q-7.44,8.81-7.44,25.33t7.44,25.33q7.41,8.79,19.86,8.79T824.31,439.71Z"/><path d="M870.32,460.17q-9.32-8.79-10.54-25.32h22.76q.6,6.67,4.24,10.16a13,13,0,0,0,9.4,3.49q6.52,0,10.09-4.32t3.56-13.12V361.3h22.75v69.76q0,18-9.63,28T896.18,469Q879.65,469,870.32,460.17Z"/><path d="M975.8,423.48V447h50.8v20.48H953.05V361.3h72v20.48H975.8v22.74h46.25v19Z"/><path d="M1057.39,467.46h-25.48l34.88-54.6-33.36-51.56h25.78l22.29,37,22.29-37H1129l-33.37,51.56,34.88,54.6H1104.7l-23.65-39.74Z"/><path d="M1156.34,462.53a43.2,43.2,0,0,1-17.44-18.73q-6.15-12.29-6.14-29.42T1138.9,385a43.2,43.2,0,0,1,17.44-18.73q11.29-6.45,26.46-6.45,19.11,0,30.56,9.33t15.69,25.56h-23.5a26,26,0,0,0-8.42-10.7q-5.24-3.71-14.33-3.71-12.43,0-19.86,8.79t-7.44,25.33q0,16.53,7.44,25.33t19.86,8.79q9.1,0,14.33-3.71a26,26,0,0,0,8.42-10.7h23.5q-4.24,16.23-15.69,25.55T1182.8,469Q1167.64,469,1156.34,462.53Z"/><path d="M1267,423.48V447h50.8v20.48h-73.55V361.3h72v20.48H1267v22.74h46.25v19Z"/><path d="M1406.48,467.46H1335.2V361.3H1358V447h48.53Z"/><path d="M1491.4,467.46h-71.28V361.3h22.75V447h48.53Z"/><path d="M1527.8,423.48V447h50.8v20.48h-73.55V361.3h72v20.48H1527.8v22.74h46.25v19Z"/><path d="M1618.79,467.46H1596V361.3h29.57l40.19,73.55h.75V361.3h22.76V467.46h-29.58l-40.18-73.55h-.76Z"/><path d="M1729.57,462.53a43.22,43.22,0,0,1-17.45-18.73q-6.13-12.29-6.13-29.42t6.13-29.42a43.22,43.22,0,0,1,17.45-18.73q11.29-6.45,26.46-6.45,19.11,0,30.56,9.33t15.69,25.56h-23.5a26,26,0,0,0-8.42-10.7q-5.23-3.71-14.33-3.71-12.43,0-19.86,8.79t-7.44,25.33q0,16.53,7.44,25.33T1756,448.5q9.09,0,14.33-3.71a26,26,0,0,0,8.42-10.7h23.5q-4.24,16.23-15.69,25.55T1756,469Q1740.87,469,1729.57,462.53Z"/><path d="M1840.2,423.48V447H1891v20.48h-73.55V361.3h72v20.48H1840.2v22.74h46.25v19Z"/></svg>